<svg xmlns="http://www.w3.org/2000/svg" width="456" height="264">
<path style="fill:#000000; stroke:none;" d="M0 0L0 264L456 264L456 0L338 0L0 0z"/>
<path style="fill:#ff0000; stroke:none;" d="M164 4L164 44L204 44L204 4L164 4M252 4L252 44L292 44L292 4L252 4M208 48L208 88L248 88L248 48L208 48M252 48L252 88L292 88L292 48L252 48M164 92L164 132L204 132L204 92L164 92M208 92L208 132L248 132L248 92L208 92M252 92L252 132L292 132L292 92L252 92z"/>
<path style="fill:#ffffff; stroke:none;" d="M4 148L4 212L68 212L68 196L20 196L20 164L68 164L68 148L4 148M76 148L76 212L92 212L92 188L124 188L124 212L140 212L140 148L76 148M148 148L148 212L164 212L164 188L212 188L212 148L148 148M220 148L220 212L236 212L236 188L284 188L284 148L220 148M292 148L292 212L308 212L308 148L292 148M316 148L316 212L380 212L380 196L332 196L332 164L380 164L380 148L316 148M388 148L388 212L452 212L452 196L404 196L404 188L452 188L452 172L404 172L404 164L452 164L452 148L388 148z"/>
<path style="fill:#000000; stroke:none;" d="M92 164L92 172L124 172L124 164L92 164M164 164L164 172L196 172L196 164L164 164M236 164L236 172L268 172L268 164L236 164z"/>
<path style="fill:#ffffff; stroke:none;" d="M268 196L268 212L284 212L284 196L268 196z"/>
<path style="fill:#ff0000; stroke:none;" d="M4 228L4 256L8 256L8 260L56 260L56 256L60 256L60 228L52 228L52 252L36 252L36 228L28 228L28 252L12 252L12 228L4 228M68 228L68 260L116 260L116 252L76 252L76 248L116 248L116 240L76 240L76 236L116 236L116 228L68 228M124 228L124 260L168 260L168 256L172 256L172 244L168 244L168 240L172 240L172 232L168 232L168 228L124 228M220 228L220 260L228 260L228 248L256 248L256 252L260 252L260 260L268 260L268 248L264 248L264 244L268 244L268 232L264 232L264 228L220 228M280 228L280 232L276 232L276 260L284 260L284 248L316 248L316 260L324 260L324 232L320 232L320 228L280 228M332 228L332 260L376 260L376 256L380 256L380 232L376 232L376 228L332 228M388 228L388 260L396 260L396 228L388 228M408 228L408 232L404 232L404 256L408 256L408 260L448 260L448 256L452 256L452 232L448 232L448 228L408 228z"/>
<path style="fill:#000000; stroke:none;" d="M132 236L132 240L160 240L160 236L132 236M228 236L228 240L260 240L260 236L228 236M284 236L284 240L316 240L316 236L284 236M340 236L340 252L372 252L372 236L340 236M412 236L412 252L444 252L444 236L412 236M132 248L132 252L160 252L160 248L132 248z"/>
</svg>
